<svg width="1200" height="700" viewBox="0 0 1200 700" fill="none" xmlns="http://www.w3.org/2000/svg">
  <rect width="1200" height="700" fill="#0B1020"/>
  <rect x="72" y="72" width="1056" height="556" rx="24" fill="#0E1428" stroke="rgba(255,255,255,0.14)"/>
  <text x="118" y="142" fill="#EAF0FF" font-size="34" font-family="Inter, Arial, sans-serif" font-weight="600">5% VaR exceptions: expected vs observed (sample)</text>
  <text x="118" y="178" fill="#B8C2DA" font-size="20" font-family="Inter, Arial, sans-serif">Adaptive rolling window output used for Kupiec/Christoffersen checks.</text>

  <line x1="176" y1="534" x2="1018" y2="534" stroke="rgba(255,255,255,0.18)" stroke-width="2"/>
  <line x1="176" y1="256" x2="176" y2="534" stroke="rgba(255,255,255,0.18)" stroke-width="2"/>

  <rect x="248" y="344" width="58" height="190" rx="10" fill="#9A7BFF"/>
  <rect x="316" y="364" width="58" height="170" rx="10" fill="#35F2D1"/>
  <rect x="450" y="344" width="58" height="190" rx="10" fill="#9A7BFF"/>
  <rect x="518" y="402" width="58" height="132" rx="10" fill="#FF4D6D"/>
  <rect x="652" y="344" width="58" height="190" rx="10" fill="#9A7BFF"/>
  <rect x="720" y="356" width="58" height="178" rx="10" fill="#35F2D1"/>
  <rect x="854" y="344" width="58" height="190" rx="10" fill="#9A7BFF"/>
  <rect x="922" y="352" width="58" height="182" rx="10" fill="#35F2D1"/>

  <text x="256" y="565" fill="#EAF0FF" font-size="18" font-family="Inter, Arial, sans-serif">BTC</text>
  <text x="458" y="565" fill="#EAF0FF" font-size="18" font-family="Inter, Arial, sans-serif">ETH</text>
  <text x="660" y="565" fill="#EAF0FF" font-size="18" font-family="Inter, Arial, sans-serif">DOGE</text>
  <text x="861" y="565" fill="#EAF0FF" font-size="18" font-family="Inter, Arial, sans-serif">SOL</text>

  <rect x="816" y="106" width="232" height="132" rx="14" fill="#121B33" stroke="rgba(255,255,255,0.12)"/>
  <rect x="844" y="136" width="18" height="18" rx="4" fill="#9A7BFF"/>
  <text x="874" y="150" fill="#EAF0FF" font-size="17" font-family="Inter, Arial, sans-serif">Expected 5% hits</text>
  <rect x="844" y="170" width="18" height="18" rx="4" fill="#35F2D1"/>
  <text x="874" y="184" fill="#EAF0FF" font-size="17" font-family="Inter, Arial, sans-serif">Observed (pass zone)</text>
  <rect x="844" y="204" width="18" height="18" rx="4" fill="#FF4D6D"/>
  <text x="874" y="218" fill="#EAF0FF" font-size="17" font-family="Inter, Arial, sans-serif">Observed (watch)</text>

  <text x="121" y="344" fill="#B8C2DA" font-size="15" font-family="Inter, Arial, sans-serif">15</text>
  <text x="121" y="429" fill="#B8C2DA" font-size="15" font-family="Inter, Arial, sans-serif">10</text>
  <text x="121" y="514" fill="#B8C2DA" font-size="15" font-family="Inter, Arial, sans-serif">5</text>
</svg>
